<?xml version="1.0" standalone="no"?>
<!DOCTYPE svg PUBLIC "-//W3C//DTD SVG 20010904//EN"
 "http://www.w3.org/TR/2001/REC-SVG-20010904/DTD/svg10.dtd">
<svg version="1.0" xmlns="http://www.w3.org/2000/svg"
 width="200.000000pt" height="200.000000pt" viewBox="0 0 200.000000 200.000000"
 preserveAspectRatio="xMidYMid meet">

<g transform="translate(0.000000,200.000000) scale(0.100000,-0.100000)"
fill="#000000" stroke="none">
<path d="M0 1000 l0 -1000 1000 0 1000 0 0 1000 0 1000 -1000 0 -1000 0 0
-1000z m381 280 c15 -9 19 -22 19 -65 0 -63 -13 -75 -82 -75 -60 0 -68 8 -63
63 2 26 0 47 -6 47 -5 0 -9 9 -9 20 0 18 7 20 61 20 33 0 69 -5 80 -10z m193
-6 c19 -18 20 -28 6 -55 -8 -14 -22 -19 -58 -20 l-47 -2 47 -6 c54 -8 63 -14
55 -36 -8 -19 -117 -21 -135 -3 -7 7 -12 35 -12 63 0 28 5 56 12 63 18 18 113
15 132 -4z m108 -31 l20 -48 14 30 c7 17 13 35 14 42 0 15 39 28 50 16 5 -4
-6 -37 -23 -73 -44 -89 -68 -93 -103 -16 -14 31 -30 56 -35 56 -5 0 -9 9 -9
20 0 15 7 20 25 20 21 0 30 -9 47 -47z m286 35 c18 -18 15 -98 -5 -120 -20
-22 -108 -25 -135 -4 -23 17 -25 98 -2 120 19 19 124 22 142 4z m176 -4 c25
-24 20 -71 -8 -90 -14 -8 -34 -14 -45 -12 -11 2 -26 -5 -34 -16 -9 -13 -20
-17 -32 -13 -14 6 -16 17 -13 57 1 28 0 50 -4 50 -5 0 -8 9 -8 20 0 18 7 20
64 20 45 0 69 -5 80 -16z m184 -1 c-2 -13 -16 -19 -53 -24 l-50 -5 45 -5 c38
-3 46 -8 54 -32 16 -45 -1 -61 -69 -65 -67 -4 -92 11 -60 34 13 10 32 14 53
10 17 -2 32 -1 32 4 0 5 -19 10 -41 12 -51 4 -68 25 -51 62 11 24 16 26 78 26
57 0 65 -2 62 -17z m-918 -242 l0 -50 43 -3 c34 -2 42 -7 42 -23 0 -17 -8 -20
-55 -23 -30 -1 -60 1 -66 5 -6 5 -14 38 -16 76 l-6 67 29 0 c28 0 29 -2 29
-49z m268 7 c3 -40 0 -42 -73 -51 -24 -3 -22 -4 11 -6 85 -3 77 -51 -9 -51
-66 0 -87 19 -87 76 0 72 3 75 84 72 l71 -3 3 -37z m180 30 c7 -7 12 -38 12
-70 0 -53 -2 -58 -22 -58 -13 0 -41 -3 -63 -6 -33 -5 -44 -2 -60 15 -15 17
-17 27 -9 49 8 23 16 28 59 33 l50 6 -52 1 c-46 2 -53 5 -53 22 0 18 7 20 63
20 36 0 68 -5 75 -12z m180 -53 c4 -71 -9 -85 -74 -85 -50 0 -57 9 -58 66 -1
23 -4 46 -8 50 -5 4 -8 14 -8 21 0 11 16 13 73 11 l72 -3 3 -60z m190 26 c4
-41 -8 -51 -67 -51 -24 0 -42 -3 -39 -6 3 -3 21 -5 39 -6 47 0 69 -7 69 -23 0
-7 -7 -16 -16 -19 -27 -10 -110 -6 -122 6 -13 13 -17 120 -5 132 4 4 37 6 73
4 l65 -3 3 -34z m176 22 c10 -33 2 -133 -10 -133 -6 0 -21 9 -34 20 -27 23
-40 25 -40 6 0 -19 -31 -30 -42 -14 -5 7 -7 32 -6 54 2 24 -2 46 -10 53 -23
22 -2 31 68 31 57 0 70 -3 74 -17z m186 -3 c0 -17 -7 -20 -52 -21 -30 -1 -40
-4 -23 -6 70 -9 75 -11 75 -48 0 -42 -20 -55 -83 -55 -50 0 -83 24 -56 41 8 5
31 8 52 6 20 -3 37 0 37 4 0 5 -15 9 -34 9 -37 0 -66 21 -66 49 0 30 22 41 87
41 56 0 63 -2 63 -20z m-1302 -252 c-3 -47 -21 -55 -26 -12 -4 31 4 54 18 54
7 0 10 -17 8 -42z m107 7 c2 -41 -11 -55 -51 -55 -24 0 -34 5 -34 15 0 8 6 15
13 16 10 0 10 2 0 6 -14 5 -17 35 -6 47 4 4 23 6 42 4 30 -3 35 -6 36 -33z
m92 27 c14 -9 12 -82 -2 -82 -6 0 -17 6 -23 12 -10 10 -15 10 -21 -1 -15 -23
-30 -3 -29 39 0 38 2 40 32 40 17 0 36 -4 43 -8z m117 -9 c2 -10 4 -29 3 -43
-2 -22 -7 -25 -44 -28 l-42 -3 1 45 1 46 38 0 c27 0 39 -5 43 -17z m106 2 c7
-8 8 -20 4 -27 -5 -7 -7 -21 -6 -30 3 -14 -4 -18 -33 -18 -43 0 -65 33 -46 69
14 25 62 29 81 6z m50 -15 c0 -25 4 -30 25 -30 16 0 25 -6 25 -16 0 -12 -9
-14 -37 -12 -37 3 -38 4 -41 46 -2 33 0 42 12 42 11 0 16 -10 16 -30z"/>
<path d="M303 1218 c2 -25 8 -33 23 -33 14 0 20 8 22 33 3 29 1 32 -23 32 -24
0 -26 -3 -22 -32z"/>
<path d="M493 1243 c9 -2 25 -2 35 0 9 3 1 5 -18 5 -19 0 -27 -2 -17 -5z"/>
<path d="M862 1218 c3 -28 7 -32 33 -33 27 0 30 4 33 33 3 31 2 32 -33 32 -35
0 -36 -1 -33 -32z"/>
<path d="M1056 1236 c6 -15 39 -28 48 -18 16 15 3 32 -24 32 -21 0 -28 -4 -24
-14z"/>
<path d="M583 1033 c9 -2 25 -2 35 0 9 3 1 5 -18 5 -19 0 -27 -2 -17 -5z"/>
<path d="M775 980 c28 -12 45 -12 45 0 0 6 -15 10 -32 9 -28 0 -30 -2 -13 -9z"/>
<path d="M950 1010 c0 -25 4 -30 25 -30 21 0 25 5 25 30 0 25 -4 30 -25 30
-21 0 -25 -5 -25 -30z"/>
<path d="M1138 1033 c12 -2 30 -2 40 0 9 3 -1 5 -23 4 -22 0 -30 -2 -17 -4z"/>
<path d="M1320 1025 c0 -8 9 -15 20 -15 11 0 20 7 20 15 0 8 -9 15 -20 15 -11
0 -20 -7 -20 -15z"/>
<path d="M448 813 c7 -3 16 -2 19 1 4 3 -2 6 -13 5 -11 0 -14 -3 -6 -6z"/>
</g>
</svg>
